<svg width="108" height="50" viewBox="0 0 108 50" fill="none" xmlns="http://www.w3.org/2000/svg">
<g clip-path="url(#clip0_9_1854)">
<path d="M100.272 44.0709C99.8378 44.0814 99.4031 44.0658 98.9705 44.0244C98.1511 43.9779 97.3317 43.9256 96.5123 43.9256C95.9835 43.9256 95.9835 43.9256 95.9312 43.3969L95.1583 34.6246L94.3854 27.3453L93.8566 22.8604L93.3743 18.9564L92.5084 12.8855C92.2178 10.7186 91.8808 8.59809 91.4449 6.42534C91.3984 6.08839 91.3984 6.04192 91.782 5.98963C93.2911 5.69918 94.8244 5.55328 96.3612 5.55392H96.8901C97.0069 5.57234 97.1139 5.63026 97.1932 5.718C97.2726 5.80575 97.3194 5.91804 97.3259 6.03612L97.5177 9.35915L98.8659 27.3395L99.54 35.5832L99.9758 40.3063L100.266 44.065L100.272 44.0709ZM41.1545 5.55392H42.0204C42.4562 5.55392 42.5492 5.69916 42.5492 6.13487L42.9327 11.9444L43.8102 24.092L44.339 30.4069L44.7226 35.2753L45.4955 43.6642C45.4955 44.0476 45.449 44.0999 45.0596 44.0999L41.5729 43.9547C41.3346 44.0011 41.1893 43.8559 41.1893 43.6177L41.044 41.933C40.8988 40.4864 40.7535 39.0282 40.6605 37.5468L39.8992 29.9015L39.0798 23.0056L38.4987 18.1373L37.8711 13.7046C37.5806 11.7294 37.2435 9.70189 36.9065 7.72666L36.6624 6.37888C36.6159 6.13488 36.6624 6.04192 36.9065 5.99545C38.3003 5.69539 39.7229 5.54928 41.1487 5.55974L41.1545 5.55392ZM89.6609 24.9809C90.8638 24.9809 91.0091 25.0273 91.2067 26.1834C91.4469 27.628 91.6406 29.0746 91.7878 30.5231L92.3166 35.1707L93.3278 45.0991C93.3743 45.3431 93.3278 45.4361 93.0837 45.4361L89.3238 45.8718C88.9403 45.9183 88.8415 45.8718 88.795 45.4884L86.6274 34.4039L85.2792 27.0258L85.0874 26.0149C85.0743 25.9736 85.0704 25.9299 85.076 25.887C85.0816 25.844 85.0966 25.8028 85.1199 25.7662C85.1432 25.7297 85.1742 25.6987 85.2107 25.6754C85.2473 25.6521 85.2885 25.6372 85.3315 25.6315C86.7592 25.2968 88.2105 25.0715 89.6725 24.9576L89.6609 24.9809ZM34.8377 24.9809C36.1394 24.9344 36.2846 25.0796 36.4299 26.2822C36.767 28.2574 37.0111 30.1862 37.2028 32.1614L37.8304 37.9709L38.214 41.8748L38.551 45.0062C38.551 45.4419 38.5046 45.5348 38.1152 45.5871L34.5471 45.9241C34.1635 45.9706 34.0648 45.9241 34.0183 45.5406L31.0778 30.4069L30.3049 26.1195C30.2875 26.0716 30.2817 26.0203 30.2878 25.9697C30.2939 25.9192 30.3118 25.8707 30.3401 25.8283C30.3684 25.7859 30.4062 25.7507 30.4506 25.7256C30.4949 25.7005 30.5445 25.6862 30.5955 25.6838C31.9906 25.3532 33.4087 25.1279 34.8377 25.0099V24.9809ZM53.2593 39.9229V46.0925C53.3058 46.383 53.1605 46.5283 52.8757 46.476H51.7135C50.8941 46.476 50.0747 46.5225 49.2553 46.5747C48.8195 46.6212 48.773 46.6212 48.7265 46.0925L47.9536 37.4132L47.5701 33.1258L46.989 26.5727C46.9425 26.044 47.0354 25.9452 47.4713 25.8987C48.8231 25.7686 50.1826 25.7356 51.5391 25.8L52.5503 25.9452C52.9339 26.0905 52.9862 26.1369 52.9862 26.5262L53.1314 29.1288L53.1779 32.0336C53.2244 34.6827 53.2767 37.2621 53.2767 39.9403L53.2593 39.9229ZM107.984 40.2133V46.1681C107.984 46.4063 107.885 46.5515 107.647 46.505H105.903C105.229 46.505 104.555 46.5515 103.927 46.6038C103.544 46.6503 103.492 46.6038 103.445 46.1681L102.434 34.886L101.905 29.2973L101.713 26.4565C101.667 26.073 101.76 25.9743 102.149 25.9743C103.749 25.766 105.369 25.7504 106.973 25.9278C107.6 25.9743 107.693 26.1718 107.745 26.7934L107.891 33.1839L107.99 40.2192L107.984 40.2133ZM88.2836 14.7155C88.7038 14.7188 89.1233 14.7518 89.5388 14.8142C89.6383 14.821 89.732 14.8636 89.8025 14.9341C89.873 15.0046 89.9156 15.0982 89.9224 15.1977L90.55 21.896C90.6953 22.477 90.5965 22.5699 90.0212 22.5699L88.3824 22.6687C88.0453 22.7151 87.9001 22.7674 87.9001 22.233L87.226 16.7837L87.0342 15.2383C86.9877 14.9479 87.0807 14.8026 87.3712 14.7562L88.2894 14.7097L88.2836 14.7155ZM33.658 14.7155C34.0298 14.7224 34.4007 14.7555 34.7679 14.8142C34.859 14.8311 34.9418 14.878 35.0029 14.9476C35.064 15.0171 35.1 15.1052 35.105 15.1977L35.2967 16.8824L35.7791 22.111C35.8256 22.4944 35.8256 22.5467 35.442 22.5467L33.5592 22.6454C33.1756 22.6919 33.1233 22.6454 33.0768 22.262L32.641 18.4045L32.2575 15.1744C32.211 14.9304 32.304 14.791 32.548 14.791C32.9152 14.7322 33.2861 14.6992 33.658 14.6923V14.7155ZM52.899 19.5374V22.8604C52.9455 23.3891 52.8525 23.3891 52.4166 23.3891C51.789 23.3891 51.2137 23.3426 50.6326 23.2903C50.2491 23.2438 50.1967 23.2438 50.249 22.8546L50.1038 18.7589C50.1038 17.841 50.1038 16.9289 50.0573 16.011C50.0108 15.5753 50.0573 15.5288 50.4931 15.5288C51.1718 15.5292 51.8495 15.5777 52.5212 15.6741C52.9048 15.6741 52.9048 15.7728 52.9048 16.1562V19.5316L52.899 19.5374ZM107.676 19.5838V22.9301C107.676 23.3658 107.629 23.4123 107.193 23.4123L105.363 23.3135C105.072 23.2671 104.927 23.1218 104.979 22.8778L104.805 15.9587C104.805 15.5753 104.851 15.523 105.241 15.523C105.868 15.523 106.444 15.5695 107.025 15.6218C107.745 15.6683 107.652 15.8135 107.652 16.3421V19.5722L107.676 19.5838ZM32.1645 22.1865C32.211 22.7674 32.1645 22.8604 31.5834 22.9069L30.4211 23.1973C30.0376 23.3426 29.9853 23.2438 29.9388 22.9069L28.7359 16.1098C28.5906 15.6741 28.6894 15.5811 29.1194 15.5288L30.8047 15.2383C31.1882 15.1919 31.287 15.1919 31.287 15.5753C31.4323 16.3944 31.5775 17.2136 31.6705 18.0327L32.1529 21.8902V22.1807L32.1645 22.1865ZM83.4661 15.5811C84.1867 15.4359 84.9596 15.3429 85.7325 15.2441C85.9707 15.1977 86.0695 15.3429 86.116 15.5811L86.4996 18.2302C86.6989 19.5235 86.827 20.8268 86.8831 22.1342V22.5176C86.8962 22.5589 86.9001 22.6026 86.8945 22.6456C86.8889 22.6886 86.8739 22.7298 86.8507 22.7663C86.8274 22.8029 86.7964 22.8339 86.7598 22.8572C86.7232 22.8805 86.682 22.8955 86.639 22.9011L85.0932 23.238C84.855 23.2845 84.7562 23.1915 84.7097 22.9475L83.4545 15.767V15.5753L83.4661 15.5811ZM49.2321 20.8096C49.2321 21.5823 49.1856 22.3027 49.1333 22.9766C49.1333 23.2206 49.0345 23.3135 48.7962 23.36L47.3028 23.5052C47.0645 23.5517 46.9657 23.4065 46.9657 23.1683C46.8669 22.4479 46.8204 21.7682 46.7739 21.0478C46.6751 19.7465 46.5822 18.3987 46.5299 17.0451L46.4311 16.0807C46.3846 15.889 46.4776 15.7902 46.6693 15.7902L48.6452 15.645C48.9822 15.645 49.081 15.6915 49.081 16.0807L49.2263 20.8038L49.2321 20.8096ZM103.887 20.0254C103.935 20.9562 103.935 21.8889 103.887 22.8197C103.933 23.2554 103.84 23.3484 103.404 23.3484L102.056 23.4936C101.818 23.5401 101.673 23.3949 101.673 23.1567C101.626 21.9541 101.527 20.6993 101.434 19.4909L101.243 16.1156C101.196 15.8774 101.289 15.7786 101.481 15.7786L103.41 15.6334C103.747 15.6334 103.794 15.6799 103.794 16.0691C103.899 17.3831 103.932 18.7019 103.893 20.0195L103.887 20.0254ZM30.2584 36.4604C30.6185 36.8684 30.8625 37.3656 30.9647 37.9001C31.0669 38.4346 31.0237 38.9867 30.8395 39.4988C30.5615 40.5395 30.012 41.4878 29.2472 42.2467C28.0029 43.5368 26.5538 44.6125 24.9585 45.4302C22.2569 46.873 19.3446 47.8808 16.3289 48.4163C14.1806 48.8466 12.0064 49.1358 9.82028 49.2819C9.14618 49.3284 8.47206 49.3284 7.79215 49.3284H6.34515C5.96161 49.3284 5.86282 49.2297 5.81633 48.8462L5.47929 44.1986L4.5611 34.9906L3.54995 26.2183L2.96883 21.5707L2.3412 17.0858C2.00415 14.6283 1.56832 12.1709 1.13829 9.7077C0.801238 7.73248 0.464184 5.75725 0.0283417 3.77622C-0.0181482 3.53222 0.0283438 3.34051 0.266605 3.29404L6.96696 0.499675C7.36919 0.311474 7.78985 0.165457 8.22219 0.063963C8.51275 0.0174871 8.65804 0.110431 8.60573 0.400906C8.60573 1.17357 8.60572 1.94623 8.55923 2.76537L8.51275 3.39279C8.46626 6.18715 8.46626 8.98153 8.51275 11.8282C8.55924 14.2856 8.70452 16.7953 8.8498 19.2527C9.08806 23.1102 9.4774 26.9677 9.86095 30.7729C9.86095 31.1563 9.90745 31.1564 10.3433 31.1099C11.1399 30.9742 11.947 30.9101 12.7549 30.9182C15.3015 30.9098 17.8392 31.2181 20.3096 31.8361C22.48 32.3577 24.5998 33.0712 26.6438 33.9681C27.6364 34.4453 28.5738 35.0297 29.439 35.711C29.7458 35.9303 30.0215 36.1903 30.2584 36.4837V36.4604ZM84.5993 36.0247C85.0785 36.3957 85.4359 36.9015 85.6254 37.4771C85.8148 38.0527 85.8279 38.6717 85.6627 39.2548C85.4276 40.2947 84.9294 41.2568 84.2157 42.0491C83.0724 43.3166 81.7176 44.3761 80.2118 45.1804C77.3279 46.7756 74.1999 47.8828 70.9545 48.457C69.1853 48.8087 67.3988 49.0666 65.6023 49.2297C64.5288 49.3363 63.4493 49.3693 62.3713 49.3284H61.0696C60.779 49.3749 60.6337 49.2297 60.6337 48.945C60.5349 47.5972 60.442 46.2436 60.2967 44.8784L59.5238 36.6347L58.7044 29.4542L57.6932 21.3557C57.548 19.9557 57.3562 18.5091 57.1121 17.1148L56.2463 11.7178C55.8627 9.16162 55.3804 6.61126 54.8458 4.05508L54.7993 3.71812C54.7717 3.67223 54.756 3.62016 54.7538 3.56666C54.7516 3.51316 54.7629 3.45996 54.7866 3.41195C54.8103 3.36395 54.8457 3.32267 54.8896 3.29191C54.9334 3.26115 54.9843 3.24191 55.0375 3.23594C57.4027 2.27156 59.6865 1.20843 62.0749 0.296339C62.7025 0.0581499 63.4754 -0.232332 63.4231 0.342807C63.2313 2.12632 63.2779 3.90984 63.2314 5.64687C63.1741 7.07587 63.1896 8.50686 63.2778 9.93428V11.0439C63.2778 12.7867 63.3243 14.5296 63.4696 16.2027C63.5684 18.4684 63.7137 20.7806 63.9055 23.0463L64.3413 27.9147C64.3904 28.8196 64.4874 29.7213 64.6319 30.6161C64.6319 31.1447 64.7307 31.0982 65.1607 31.0518C66.0217 30.9161 66.8925 30.852 67.7641 30.8601C70.7768 30.9233 73.7681 31.3823 76.6611 32.2253C78.6346 32.7501 80.5429 33.4945 82.3503 34.4445C83.1646 34.886 83.9252 35.4202 84.6167 36.0363L84.5993 36.0247ZM14.8644 44.5066C16.1493 43.6913 17.3889 42.807 18.5778 41.8574C19.7103 40.9921 20.7893 40.0589 21.8088 39.0631C19.1627 37.8979 16.4589 36.8683 13.708 35.9782L14.8702 44.5124L14.8644 44.5066ZM76.4635 39.278C76.6088 39.1328 76.5624 39.0398 76.4171 38.9411L75.2548 38.4589C73.2325 37.5932 71.1869 36.8206 69.1298 36.1351L68.8392 36.0363C68.7404 35.9898 68.6474 36.0363 68.5022 36.0828L69.6644 44.4194C69.7704 44.4257 69.8747 44.3902 69.955 44.3207C71.8378 42.9729 73.7148 41.5728 75.5977 40.0797L76.4635 39.2606V39.278Z" fill="#07A3D7"/>
</g>
<defs>
<clipPath id="clip0_9_1854">
<rect width="54" height="24.67" fill="white" transform="scale(2)"/>
</clipPath>
</defs>
</svg>
