<svg width="240" height="160" viewBox="0 0 240 160" fill="none" xmlns="http://www.w3.org/2000/svg">
<path d="M36.0776 80L31.8832 84.1908L27.6924 80L31.8832 75.8092L36.0776 80ZM46.2464 69.824L53.428 77.0092L57.6187 72.8184L46.2464 61.446L34.874 72.8184L39.0648 77.0092L46.2464 69.824ZM60.6132 75.8092L56.4224 80L60.6132 84.1908L64.8004 80L60.6132 75.8092ZM46.2464 90.1761L39.0648 82.9945L34.874 87.1816L46.2464 98.554L57.6187 87.1816L53.428 82.9945L46.2464 90.1761ZM46.2464 84.1908L50.4371 80L46.2464 75.8092L42.0556 80L46.2464 84.1908ZM90.4743 84.5932V84.5352C90.4743 81.8018 89.0242 80.4351 86.6642 79.536C88.1143 78.7203 89.3396 77.4406 89.3396 75.1458V75.0878C89.3396 71.8904 86.7802 69.824 82.622 69.824H73.1819V90.1761H82.8613C87.4545 90.1761 90.4816 88.3163 90.4816 84.5932H90.4743ZM84.8914 75.8926C84.8914 77.4044 83.6407 78.046 81.665 78.046H77.5431V73.7501H81.9622C83.851 73.7501 84.8987 74.5042 84.8987 75.8419L84.8914 75.8926ZM86.0261 84.0349C86.0261 85.5466 84.8334 86.2427 82.854 86.2427H77.5431V81.7728H82.7163C85.0147 81.7728 86.0334 82.6174 86.0334 83.9842L86.0261 84.0349ZM99.8818 90.1761V69.824H95.3901V90.1761H99.8818ZM123.95 90.1761V69.824H119.516V82.3564L109.982 69.824H105.853V90.1761H110.272V77.2376L120.125 90.1761H123.95ZM148.75 90.1761L140.013 69.679H135.884L127.165 90.1761H131.73L133.597 85.6119H142.203L144.063 90.1761H148.75ZM140.611 81.6568H135.188L137.892 75.0588L140.611 81.6568ZM170.092 90.1761V69.824H165.658V82.3564L156.12 69.824H151.995V90.1761H156.41V77.2376L166.267 90.1761H170.092ZM193.203 86.8916L190.357 84.0132C188.758 85.4633 187.333 86.395 185.006 86.395C181.519 86.395 179.104 83.4948 179.104 80V79.942C179.104 76.4545 181.577 73.6051 185.006 73.6051C187.04 73.6051 188.631 74.4752 190.212 75.8999L193.05 72.6154C191.162 70.7557 188.867 69.476 185.028 69.476C178.778 69.476 174.417 74.2141 174.417 79.9892V80.0472C174.417 85.891 178.865 90.5132 184.854 90.5132C188.773 90.5241 191.096 89.1284 193.188 86.8916H193.203ZM212.308 90.1761V86.1883H201.244V81.9069H210.84V77.9191H201.244V73.8081H212.148V69.8204H196.795V90.1725L212.308 90.1761Z" fill="#F0B90B"/>
</svg>
