<svg width="120" height="120" viewBox="0 0 120 120" fill="none" xmlns="http://www.w3.org/2000/svg">
<g clip-path="url(#clip0_9_1809)">
<g clip-path="url(#clip1_9_1809)">
<g clip-path="url(#clip2_9_1809)">
<mask id="mask0_9_1809" style="mask-type:luminance" maskUnits="userSpaceOnUse" x="0" y="36" width="127" height="48">
<path d="M0 36.4954H126.07V83.5994H0V36.4954Z" fill="white"/>
</mask>
<g mask="url(#mask0_9_1809)">
<path d="M16.1623 55.0013V53.1798C15.5246 53.0997 14.8827 53.0581 14.24 53.0552C11.2086 53.0522 8.25538 54.0168 5.81011 55.8084C3.36483 57.6 1.55511 60.1252 0.644298 63.0165C-0.266515 65.9078 -0.230882 69.0143 0.746011 71.8839C1.7229 74.7536 3.59007 77.2366 6.0758 78.9716C3.61311 76.3446 2.24454 72.8775 2.24885 69.2767C2.25667 65.5552 3.71385 61.9832 6.31133 59.3181C8.90881 56.6531 12.4423 55.1047 16.1623 55.0013Z" fill="#00FAF0"/>
<path d="M16.5124 75.732C18.1899 75.7228 19.7994 75.068 21.007 73.9036C22.2145 72.7391 22.9273 71.1544 22.9974 69.4784V38.4653H28.6696C28.5452 37.8142 28.4856 37.1524 28.4916 36.4895H20.7428V67.5026C20.6727 69.1787 19.9599 70.7634 18.7523 71.9278C17.5448 73.0923 15.9352 73.747 14.2577 73.7562C13.2056 73.7573 12.1697 73.4963 11.2437 72.9968C11.8389 73.841 12.6281 74.53 13.5449 75.006C14.4618 75.4819 15.4794 75.7309 16.5124 75.732ZM39.302 48.9968V47.2762C37.2157 47.2809 35.1736 46.6745 33.4281 45.5318C34.9698 47.2796 37.0265 48.4928 39.302 48.9968Z" fill="#00FAF0"/>
<path d="M33.4339 45.5318C31.7226 43.5774 30.7782 41.0688 30.7758 38.4712H28.6991C28.9748 39.9054 29.5359 41.2695 30.3493 42.4824C31.1627 43.6953 32.2117 44.7323 33.4339 45.5318ZM14.2576 60.7684C12.8017 60.763 11.3863 61.2472 10.2388 62.1432C9.09134 63.0392 8.27839 64.295 7.9306 65.7087C7.58282 67.1224 7.72041 68.612 8.32125 69.9381C8.92209 71.2642 9.95131 72.3498 11.2435 73.0205C10.5368 72.0514 10.1127 70.9053 10.0183 69.7096C9.92397 68.5139 10.1631 67.3154 10.709 66.2475C11.255 65.1795 12.0864 64.2839 13.1109 63.6602C14.1354 63.0365 15.3128 62.7091 16.5122 62.7145C17.1651 62.7123 17.814 62.8145 18.4346 63.0171V55.1258C17.7969 55.0458 17.1549 55.0042 16.5122 55.0012H16.1622V61.0769C15.548 60.8722 14.9049 60.7681 14.2576 60.7684Z" fill="#FF0050"/>
<path d="M39.3019 48.9968V55.0191C35.4388 55.0211 31.6731 53.8067 28.539 51.5481V67.2712C28.5484 69.8864 27.8375 72.4537 26.4842 74.6916C25.1308 76.9294 23.1874 78.7513 20.8669 79.9575C18.5465 81.1637 15.9387 81.7075 13.3296 81.5294C10.7204 81.3514 8.21071 80.4582 6.07568 78.9479C8.0216 81.052 10.5572 82.52 13.3508 83.1599C16.1445 83.7997 19.0662 83.5818 21.734 82.5344C24.4017 81.487 26.6914 79.659 28.3035 77.2894C29.9156 74.9199 30.7752 72.1189 30.7699 69.2529V53.518C33.9056 55.7733 37.6702 56.9873 41.5328 56.9889V49.252C40.7833 49.2296 40.0371 49.1443 39.3019 48.9968Z" fill="#FF0050"/>
<path d="M28.5152 67.2771V51.554C31.6575 53.814 35.4312 55.0283 39.3018 55.025V49.0027C37.0233 48.503 34.9648 47.2866 33.4279 45.5318C32.2018 44.7394 31.1511 43.704 30.3408 42.4896C29.5306 41.2752 28.9779 39.9076 28.7169 38.4712H23.0447V69.4784C22.9746 71.1544 22.2618 72.7391 21.0543 73.9036C19.8467 75.068 18.2372 75.7228 16.5597 75.732C15.5284 75.7355 14.5114 75.4911 13.5944 75.0192C12.6775 74.5473 11.8874 73.8618 11.2909 73.0205C9.99875 72.3498 8.96953 71.2642 8.36869 69.9381C7.76784 68.612 7.63026 67.1224 7.97804 65.7087C8.32583 64.295 9.13878 63.0392 10.2863 62.1432C11.4338 61.2472 12.8492 60.763 14.305 60.7683C14.9579 60.7662 15.6068 60.8683 16.2274 61.0709V55.0012C12.5087 55.088 8.9715 56.6265 6.37246 59.2876C3.77342 61.9488 2.31886 65.5213 2.31987 69.241C2.31075 72.8428 3.68 76.3115 6.14682 78.936C8.27942 80.4251 10.7792 81.3016 13.3747 81.4705C15.9703 81.6393 18.5625 81.094 20.8701 79.8938C23.1776 78.6935 25.1124 76.8842 26.4643 74.6621C27.8162 72.44 28.5337 69.89 28.5389 67.289L28.5152 67.2771ZM58.3238 44.802H54.6393V50.2072H50.3614V53.8858H54.6393V61.3913L50.3614 61.9847V65.865L54.6393 65.2717V71.6974C54.6362 71.9445 54.5362 72.1805 54.3609 72.3547C54.1856 72.5289 53.949 72.6274 53.7018 72.6289H50.6165V76.3075H55.2326C56.0504 76.306 56.8342 75.9804 57.4125 75.4021C57.9908 74.8239 58.3163 74.04 58.3179 73.2222V64.7377L62.0558 64.1444V60.264L58.3179 60.8573V53.9214H62.0558V50.2428H58.3179L58.3238 44.802ZM79.1792 44.802H75.5243V64.0257L63.4027 65.0759V68.9444L75.5243 67.9238V76.5567H79.1792V67.5975L82.9171 67.2593V63.379L79.1792 63.7172V44.802Z" fill="#111111"/>
<path d="M73.6258 49.0798L64.9336 47.5253V51.4294L73.6317 52.9601L73.6258 49.0798ZM73.6258 57.149L64.9336 55.5945V59.4986L73.6317 61.0531L73.6258 57.149ZM112.803 55.5352L113.396 52.533H109.516L108.923 55.5352H98.7531L98.3022 52.533H94.3922L94.8728 55.5352H87.5037V59.1307H119.994V55.5352H112.803ZM118.98 47.3532H106.656L106.033 44.8079H101.245L101.868 47.3532H88.5479V50.9132H118.997L118.98 47.3532ZM113.96 61.7651H93.5378C92.72 61.7667 91.9362 62.0922 91.3579 62.6705C90.7796 63.2487 90.4541 64.0326 90.4525 64.8504V73.2578C90.4541 74.0756 90.7796 74.8594 91.3579 75.4377C91.9362 76.016 92.72 76.3415 93.5378 76.3431H113.96C114.778 76.3415 115.562 76.016 116.14 75.4377C116.718 74.8594 117.044 74.0756 117.045 73.2578V64.8504C117.047 64.4448 116.968 64.0429 116.814 63.6678C116.659 63.2928 116.432 62.9521 116.145 62.6653C115.858 62.3784 115.518 62.1512 115.143 61.9967C114.768 61.8423 114.366 61.7635 113.96 61.7651ZM94.8372 65.1055H112.684C112.932 65.107 113.168 65.2055 113.343 65.3797C113.519 65.5539 113.619 65.7899 113.622 66.037V67.5381H93.9353V66.037C93.9287 65.915 93.9475 65.7929 93.9904 65.6785C94.0334 65.564 94.0996 65.4597 94.1849 65.3722C94.2703 65.2847 94.3728 65.2158 94.4861 65.1699C94.5994 65.124 94.7209 65.1021 94.8431 65.1055H94.8372ZM112.684 73.0323H94.8431C94.596 73.0308 94.3593 72.9324 94.184 72.7582C94.0087 72.584 93.9088 72.3479 93.9057 72.1008V70.57H113.592V72.1008C113.595 72.3437 113.502 72.578 113.333 72.7525C113.164 72.9271 112.933 73.0277 112.69 73.0323H112.684Z" fill="#111111"/>
</g>
</g>
</g>
</g>
<defs>
<clipPath id="clip0_9_1809">
<rect width="60" height="60" fill="white" transform="scale(2)"/>
</clipPath>
<clipPath id="clip1_9_1809">
<rect width="60" height="60" fill="white" transform="scale(2)"/>
</clipPath>
<clipPath id="clip2_9_1809">
<rect width="60" height="23.5046" fill="white" transform="matrix(2 0 0 2 0 36.4954)"/>
</clipPath>
</defs>
</svg>
