<svg width="56" height="60" viewBox="0 0 56 60" fill="none" xmlns="http://www.w3.org/2000/svg">
<path d="M4.9838 2.89726L35.4376 0.488551C39.1344 0.11798 40.1026 0.395909 42.479 2.15612L52.2488 9.38226C53.8332 10.5866 54.3614 10.9572 54.3614 12.3468V51.9053C54.3614 54.4067 53.4812 55.8889 50.4886 56.0743L15.1058 58.2977C12.8173 58.3903 11.7611 58.1123 10.6169 56.5375L3.48752 46.8099C2.16726 44.9571 1.63916 43.6601 1.63916 42.0851V6.8809C1.63916 4.84276 2.51932 3.08256 4.9838 2.89726Z" fill="white"/>
<path fill-rule="evenodd" clip-rule="evenodd" d="M35.4376 0.488661L4.9838 2.89737C2.51932 3.08267 1.63916 4.84287 1.63916 6.88101V42.0853C1.63916 43.6603 2.16726 45.0499 3.48752 46.8101L10.6169 56.6298C11.7611 58.2048 12.9053 58.5754 15.1058 58.39L50.4886 56.1666C53.4812 55.9814 54.3614 54.4991 54.3614 51.9977V12.3469C54.3614 11.0499 53.9212 10.679 52.425 9.56733C52.337 9.47469 52.249 9.47469 52.1608 9.38205L42.479 2.24855C40.1906 0.395687 39.2224 0.210733 35.4376 0.488661ZM15.8979 11.6981C12.9934 11.8834 12.3772 11.976 10.7049 10.4937L6.56812 7.06597C6.12804 6.60275 6.30406 6.04689 7.44828 5.95425L36.758 3.73083C39.2224 3.54555 40.4546 4.37933 41.4228 5.21311L46.4398 9.01147C46.7038 9.10411 47.232 9.75261 46.5278 9.75261L16.25 11.6981H15.8979ZM12.5533 51.6273V17.9978C12.5533 16.5155 12.9934 15.867 14.2256 15.7744L48.9922 13.6436C50.1364 13.551 50.6646 14.2921 50.6646 15.7744V49.1259C50.6646 50.6081 50.4006 51.8124 48.5522 51.905L15.2818 53.9432C13.4334 54.1284 12.5533 53.3875 12.5533 51.6273ZM45.3836 19.8507C45.5596 20.8698 45.3836 21.8888 44.4154 21.9814L42.831 22.352V47.1802C41.4228 48.014 40.1906 48.3847 39.1344 48.3847C37.462 48.3847 37.022 47.8288 35.7018 46.1613L25.1396 28.7444V45.5126L28.4844 46.3465C28.4844 46.3465 28.4844 48.3847 25.8438 48.3847L18.4504 48.8479C18.2744 48.3847 18.4504 47.273 19.1546 47.0877L21.0908 46.5318V24.2974L18.4504 24.0196C18.2744 23.0005 18.8025 21.5182 20.2988 21.4256L28.2202 20.8699L39.1344 38.4719V22.9079L36.3178 22.5373C36.1418 21.333 36.934 20.4065 37.9902 20.3139L45.3836 19.8507Z" fill="black"/>
</svg>
