<svg width="38" height="58" viewBox="0 0 38 58" fill="none" xmlns="http://www.w3.org/2000/svg">
<g clip-path="url(#clip0_9_1784)">
<g clip-path="url(#clip1_9_1784)">
<g clip-path="url(#clip2_9_1784)">
<path d="M38 42.3C38 45.4482 35.448 48 32.3 48H5.7C2.55183 48 0 45.4482 0 42.3V15.7C0 12.552 2.55195 10 5.7 10H32.3C35.448 10 38 12.552 38 15.7V42.3Z" fill="#2DC100"/>
<path d="M25.4352 24.1715C22.3682 24.3318 19.7012 25.2615 17.536 27.362C15.3483 29.4842 14.3497 32.0846 14.6226 35.3083C13.4239 35.1599 12.332 34.9965 11.2339 34.904C10.8547 34.8721 10.4046 34.9174 10.0834 35.0987C9.01714 35.7003 7.99494 36.3797 6.78337 37.137C7.00567 36.1315 7.14957 35.2511 7.40429 34.4042C7.59163 33.7817 7.50487 33.4353 6.93145 33.03C3.24975 30.4306 1.69783 26.5406 2.85924 22.5356C3.93375 18.8306 6.57247 16.5837 10.1579 15.4124C15.0517 13.8139 20.5514 15.4444 23.5272 19.3298C24.602 20.7333 25.261 22.3085 25.4352 24.1715ZM11.3198 22.9236C11.3481 22.1911 10.7133 21.5312 9.95941 21.5091C9.18751 21.4864 8.55265 22.0763 8.53011 22.837C8.50731 23.6079 9.09694 24.2256 9.87442 24.2454C10.6452 24.2649 11.2913 23.6742 11.3198 22.9236ZM18.6843 21.5086C17.9276 21.5225 17.2882 22.167 17.3016 22.9024C17.3155 23.6647 17.9427 24.2611 18.7208 24.2517C19.501 24.2423 20.0926 23.6396 20.0853 22.8613C20.0788 22.0972 19.4543 21.4945 18.6843 21.5086Z" fill="white"/>
<path d="M32.3255 43.2918C31.3543 42.8593 30.4635 42.2105 29.515 42.1115C28.5702 42.0128 27.577 42.5579 26.5885 42.6589C23.5775 42.967 20.88 42.1278 18.6557 40.0709C14.4254 36.1582 15.0299 30.1587 19.9242 26.9523C24.274 24.1025 30.6533 25.0525 33.7202 29.0067C36.3965 32.4571 36.082 37.0373 32.8148 39.936C31.8693 40.7749 31.5291 41.4652 32.1357 42.5712C32.2477 42.7753 32.2605 43.0339 32.3255 43.2918ZM21.2708 32.5886C21.889 32.5892 22.3981 32.1053 22.4215 31.4947C22.4462 30.8482 21.9263 30.3059 21.2789 30.3032C20.6379 30.3003 20.101 30.8502 20.1233 31.4871C20.1443 32.0956 20.6569 32.5878 21.2708 32.5886ZM28.3972 30.3058C27.7973 30.3016 27.2876 30.7927 27.2631 31.3988C27.2371 32.0469 27.7409 32.5792 28.3823 32.5808C29.0028 32.5829 29.4929 32.1137 29.5155 31.4963C29.5396 30.8466 29.0356 30.3102 28.3972 30.3058Z" fill="white"/>
</g>
</g>
</g>
<defs>
<clipPath id="clip0_9_1784">
<rect width="19" height="29" fill="white" transform="scale(2)"/>
</clipPath>
<clipPath id="clip1_9_1784">
<rect width="19" height="29" fill="white" transform="scale(2)"/>
</clipPath>
<clipPath id="clip2_9_1784">
<rect width="19" height="19" fill="white" transform="matrix(2 0 0 2 0 10)"/>
</clipPath>
</defs>
</svg>
