<svg width="40" height="60" viewBox="0 0 40 60" fill="none" xmlns="http://www.w3.org/2000/svg">
<g clip-path="url(#clip0_9_1797)">
<g clip-path="url(#clip1_9_1797)">
<g clip-path="url(#clip2_9_1797)">
<path d="M5.225 10H34.6359C37.4375 10 39.9266 12.4328 40 15.2312V44.6437C39.9677 46.0558 39.3918 47.4009 38.3922 48.3987C37.3926 49.3966 36.0465 49.9702 34.6344 50H5.23438C3.84386 49.9353 2.52981 49.3449 1.55806 48.3482C0.586302 47.3515 0.0293962 46.023 0 44.6312L0 15.2438C0.0671875 12.4891 2.47031 10.0781 5.225 10ZM7.83906 24.2875C7.81875 27.3922 7.82969 30.4984 7.81406 33.6047C7.82624 33.6542 7.82673 33.7058 7.81549 33.7555C7.80424 33.8052 7.78157 33.8516 7.74927 33.8911C7.71698 33.9305 7.67594 33.9618 7.62942 33.9827C7.5829 34.0035 7.53217 34.0131 7.48125 34.0109C7.10781 34.0328 6.73281 34.0203 6.35781 34.0234C6.60938 34.6484 6.88125 35.2516 7.1625 35.8562C7.86875 35.8328 8.675 35.9797 9.27812 35.5172C9.82031 35.1141 9.99375 34.3969 9.98281 33.7516C9.98281 30.5969 9.98281 27.4406 9.96875 24.2859C9.25937 24.2828 8.54844 24.2812 7.83906 24.2875ZM16.6016 24.1469C16.0724 25.3625 15.5328 26.5729 14.9828 27.7781C14.8266 28.1391 14.6375 28.6172 14.9656 28.9438C15.3859 29.325 16.0031 29.1781 16.5187 29.2125C16.1609 30.1156 15.6906 30.9734 15.3891 31.8984C15.2219 32.3547 15.6391 32.8188 16.0953 32.8234C16.9219 32.8797 17.7516 32.8234 18.5797 32.8453C18.85 32.2406 19.1219 31.6375 19.3875 31.0297C18.9047 31.0297 18.4172 31.0641 17.9422 30.9688C18.4563 29.6781 19.0656 28.4297 19.6109 27.1547C18.9438 27.0766 18.1891 27.2937 17.5797 27.0344C17.8766 26.0344 18.4172 25.1172 18.7984 24.1437C18.0641 24.1406 17.3328 24.1359 16.6016 24.1469ZM27.9688 24.1547V24.9688H26.5344V27.1453C27.0141 27.1453 27.4922 27.1453 27.9703 27.1547C27.9828 27.7797 27.9828 28.4089 27.9703 29.0422C27.2516 29.0562 26.5312 29.0422 25.8125 29.0531C25.8031 29.7781 25.8047 30.5016 25.8125 31.225C26.5328 31.2328 27.2547 31.225 27.975 31.225V35.8484H30.1391V31.2281C31.1922 31.2281 32.2438 31.2125 33.2969 31.2281C33.6672 31.1969 34.0906 31.4562 34.0781 31.8641C34.107 32.4408 34.107 33.0186 34.0781 33.5953C34.0837 33.6887 34.0519 33.7806 33.9898 33.8506C33.9277 33.9206 33.8403 33.9631 33.7469 33.9688C33.1453 34.0125 32.5422 33.9688 31.9391 33.9891C32.2047 34.6141 32.4625 35.2391 32.7641 35.8562C33.7562 35.8047 34.9688 36.0547 35.725 35.2312C36.4437 34.5656 36.2281 33.5125 36.2578 32.6437C36.2125 31.7297 36.4359 30.6969 35.8688 29.8969C35.3859 29.2188 34.5156 29.0344 33.7313 29.0203C33.6844 27.9266 33.9453 26.6469 33.1406 25.7578C32.3906 24.9172 31.1828 24.9141 30.1453 24.9547V24.1422C29.4109 24.15 28.6891 24.1516 27.9688 24.1547ZM20.2469 24.9703V27.1453H21.6047V33.6672C20.9563 33.6781 20.3062 33.6672 19.6578 33.675C19.3219 34.3969 18.9937 35.1219 18.6672 35.8469C21.0859 35.8562 23.5109 35.8469 25.9234 35.8469V33.675C25.2281 33.675 24.5312 33.675 23.8359 33.6672V27.1406H25.1984V24.9641C23.5516 24.9672 21.9 24.9641 20.2469 24.9703ZM34.5203 25.1703C33.9141 25.6297 34.1125 26.4703 34.0859 27.125C34.4906 27.125 34.8969 27.1469 35.3016 27.1109C35.9516 27.0516 36.4406 26.2938 36.1797 25.6812C35.975 25.0094 35.0672 24.7172 34.5203 25.1703ZM4.21875 27.1437C4.10938 28.5688 3.99844 29.9922 3.89531 31.4172C3.87137 31.7409 3.80194 32.0597 3.68906 32.3641C4.05469 33.2 4.42031 34.0359 4.81094 34.8641C5.68594 33.6938 6.01094 32.2188 6.10156 30.7859C6.17812 29.5672 6.31406 28.35 6.35781 27.1297C5.64062 27.1547 4.92812 27.1375 4.21875 27.1437ZM11.4266 27.1437L11.7391 31.1078C11.8531 32.4328 12.1953 33.7828 13.0047 34.8578C13.3906 34.0312 13.7594 33.1969 14.125 32.3578C14.0065 32.0529 13.9328 31.7323 13.9062 31.4062C13.8031 29.9859 13.6906 28.5656 13.5812 27.1453C12.8604 27.1411 12.1406 27.1406 11.4219 27.1437H11.4266ZM14.1078 35.6891C15.2141 36.0156 16.3859 35.7922 17.5219 35.8531C17.8563 35.1297 18.1891 34.4047 18.5141 33.6766C17.3781 33.6328 16.2219 33.7953 15.1078 33.5094C14.7672 34.2333 14.4323 34.9599 14.1031 35.6891H14.1078Z" fill="#FF2741"/>
<path d="M30.1204 27.1516C30.5891 27.2188 31.2141 26.961 31.5719 27.3391C31.6313 27.9095 31.5875 28.4829 31.5938 29.0579H30.1344C30.125 28.4225 30.1204 27.7871 30.1204 27.1516Z" fill="#FF2741"/>
<path d="M7.83916 24.2876H9.96885C9.98916 27.4423 9.98135 30.5985 9.98291 33.7532C9.99385 34.3985 9.82666 35.1157 9.27822 35.5188C8.6751 35.9876 7.87197 35.8313 7.1626 35.8579C6.88135 35.2532 6.60947 34.6438 6.35791 34.0251C6.73291 34.0251 7.10791 34.0344 7.48135 34.0126C7.53226 34.0148 7.58299 34.0051 7.62952 33.9843C7.67604 33.9635 7.71707 33.9321 7.74937 33.8927C7.78167 33.8533 7.80434 33.8069 7.81558 33.7572C7.82683 33.7075 7.82634 33.6558 7.81416 33.6063C7.82979 30.4985 7.8126 27.3923 7.83916 24.2876ZM16.6017 24.147C17.3329 24.136 18.0642 24.147 18.7892 24.147C18.4079 25.1204 17.8673 26.0376 17.5704 27.0376C18.1829 27.297 18.9376 27.0798 19.6017 27.1579C19.0563 28.4329 18.447 29.6813 17.9329 30.972C18.4017 31.0673 18.8954 31.0329 19.3782 31.0329C19.1126 31.6407 18.8407 32.2438 18.5704 32.8485C17.7423 32.8345 16.9126 32.8829 16.086 32.8266C15.6298 32.8266 15.2126 32.3579 15.3798 31.9016C15.6813 30.9766 16.1517 30.1188 16.5095 29.2157C15.9938 29.1813 15.3767 29.3282 14.9563 28.947C14.6282 28.6204 14.8188 28.1423 14.9735 27.7813C15.5267 26.573 16.0694 25.3615 16.6017 24.147ZM27.9688 24.1548H30.1313V24.9673C31.1688 24.9266 32.3767 24.9298 33.1267 25.7704C33.9313 26.6595 33.6704 27.9423 33.7173 29.0329C34.4985 29.047 35.372 29.2313 35.8548 29.9095C36.422 30.7095 36.1985 31.7423 36.2438 32.6563C36.2142 33.5266 36.4298 34.5782 35.711 35.2438C34.9548 36.061 33.7423 35.811 32.7501 35.8688C32.4485 35.2579 32.1907 34.6282 31.9251 34.0016C32.5282 33.9845 33.1313 34.0251 33.7329 33.9813C33.8263 33.9757 33.9137 33.9332 33.9758 33.8632C34.0379 33.7931 34.0697 33.7013 34.0642 33.6079C34.0931 33.0312 34.0931 32.4534 34.0642 31.8766C34.0751 31.4688 33.6517 31.2095 33.2829 31.2407C32.2298 31.2251 31.1782 31.2407 30.1251 31.2407V35.861H27.961V31.2376H25.7985V29.0657C26.5173 29.0657 27.2376 29.0657 27.9563 29.0548C27.9699 28.4298 27.9699 27.8006 27.9563 27.1673C27.4782 27.1595 27.0001 27.1532 26.5204 27.1579V24.9813H27.9548L27.9688 24.1548ZM30.1204 27.1516C30.1204 27.7871 30.1251 28.4225 30.1345 29.0579H31.5938C31.5938 28.486 31.6313 27.9126 31.572 27.3391C31.2142 26.961 30.5892 27.2188 30.1204 27.1516Z" fill="white"/>
<path d="M20.2468 24.9703H25.203V27.1469H23.8405V33.6735C24.5358 33.6813 25.2327 33.6735 25.928 33.6813V35.8532H18.6718C18.9983 35.1282 19.3265 34.4032 19.6624 33.6813C20.3108 33.6813 20.9608 33.6813 21.6093 33.6735V27.1516H20.2515C20.2452 26.4224 20.2437 25.6953 20.2468 24.9703ZM34.5202 25.1703C35.0671 24.7172 35.9749 25.0141 36.1796 25.6813C36.4405 26.2938 35.9515 27.0516 35.3015 27.111C34.8968 27.1469 34.4905 27.1266 34.0858 27.125C34.1124 26.4703 33.914 25.625 34.5202 25.1703ZM4.21865 27.1438C4.93271 27.1438 5.64521 27.1547 6.35771 27.1266C6.31396 28.3469 6.17803 29.5641 6.10146 30.7828C6.01084 32.2157 5.68584 33.6907 4.81084 34.861C4.42021 34.036 4.05459 33.2 3.68896 32.361C3.80184 32.0566 3.87127 31.7378 3.89521 31.4141C3.99365 30 4.10459 28.5688 4.21865 27.1438ZM11.4218 27.1438H13.5827C13.6921 28.5641 13.8046 29.9844 13.9077 31.4047C13.9294 31.7334 13.9988 32.0571 14.114 32.3657C13.7483 33.2016 13.3796 34.036 12.9937 34.8657C12.1843 33.786 11.8421 32.436 11.728 31.1157C11.614 29.7953 11.5265 28.4657 11.4218 27.1438ZM14.103 35.6891C14.4332 34.9599 14.7666 34.2334 15.103 33.5094C16.2171 33.7953 17.3733 33.6328 18.5093 33.6766C18.1843 34.4047 17.8515 35.1297 17.5171 35.8532C16.3812 35.7922 15.2093 36.0157 14.103 35.6891Z" fill="white"/>
</g>
</g>
</g>
<defs>
<clipPath id="clip0_9_1797">
<rect width="20" height="30" fill="white" transform="scale(2)"/>
</clipPath>
<clipPath id="clip1_9_1797">
<rect width="20" height="30" fill="white" transform="scale(2)"/>
</clipPath>
<clipPath id="clip2_9_1797">
<rect width="20" height="20" fill="white" transform="matrix(2 0 0 2 0 10)"/>
</clipPath>
</defs>
</svg>
