<svg width="346" height="231" viewBox="0 0 346 231" fill="none" xmlns="http://www.w3.org/2000/svg">
<path d="M122.982 94.9324C122.004 91.3 119.14 88.436 115.508 87.458C108.871 85.6418 82.3258 85.6418 82.3258 85.6418C82.3258 85.6418 55.7803 85.6418 49.1439 87.3882C45.5812 88.3661 42.6473 91.3 41.6693 94.9324C39.9229 101.568 39.9229 115.33 39.9229 115.33C39.9229 115.33 39.9229 129.161 41.6693 135.727C42.6473 139.359 45.5114 142.223 49.1439 143.201C55.8502 145.017 82.3258 145.017 82.3258 145.017C82.3258 145.017 108.871 145.017 115.508 143.271C119.14 142.293 122.004 139.429 122.982 135.797C124.729 129.161 124.729 115.399 124.729 115.399C124.729 115.399 124.799 101.568 122.982 94.9324Z" fill="#FF0000"/>
<path d="M73.873 102.616V128.043L95.9477 115.33L73.873 102.616Z" fill="white"/>
<path d="M163.08 139.709C161.404 138.591 160.216 136.845 159.518 134.4C158.819 132.025 158.47 128.811 158.47 124.9V119.521C158.47 115.539 158.889 112.326 159.657 109.881C160.496 107.436 161.753 105.69 163.43 104.572C165.176 103.455 167.411 102.896 170.206 102.896C172.93 102.896 175.165 103.455 176.842 104.572C178.519 105.69 179.706 107.506 180.475 109.881C181.243 112.256 181.662 115.469 181.662 119.521V124.9C181.662 128.881 181.313 132.025 180.544 134.47C179.776 136.845 178.588 138.661 176.912 139.778C175.235 140.896 172.93 141.455 170.066 141.455C167.132 141.385 164.757 140.826 163.08 139.709ZM172.511 133.841C173 132.653 173.209 130.628 173.209 127.903V116.308C173.209 113.653 173 111.697 172.511 110.44C172.022 109.183 171.253 108.624 170.066 108.624C168.948 108.624 168.11 109.252 167.691 110.44C167.202 111.697 166.992 113.653 166.992 116.308V127.903C166.992 130.628 167.202 132.653 167.691 133.841C168.11 135.028 168.948 135.657 170.136 135.657C171.253 135.657 172.022 135.098 172.511 133.841Z" fill="#282828"/>
<path d="M292.036 124.969V126.855C292.036 129.23 292.105 131.046 292.245 132.234C292.385 133.422 292.664 134.33 293.153 134.819C293.572 135.377 294.271 135.657 295.249 135.657C296.506 135.657 297.345 135.168 297.834 134.19C298.323 133.212 298.532 131.605 298.602 129.3L305.797 129.719C305.867 130.069 305.867 130.488 305.867 131.046C305.867 134.469 304.959 137.054 303.073 138.73C301.187 140.407 298.532 141.245 295.109 141.245C290.988 141.245 288.124 139.918 286.447 137.333C284.77 134.749 283.932 130.767 283.932 125.319V118.822C283.932 113.234 284.77 109.182 286.517 106.598C288.263 104.013 291.197 102.756 295.319 102.756C298.183 102.756 300.418 103.315 301.955 104.362C303.492 105.41 304.54 107.087 305.169 109.252C305.797 111.488 306.077 114.561 306.077 118.473V124.83H292.036V124.969ZM293.083 109.322C292.664 109.881 292.385 110.719 292.245 111.907C292.105 113.094 292.036 114.91 292.036 117.355V120.01H298.183V117.355C298.183 114.98 298.113 113.164 297.973 111.907C297.834 110.649 297.484 109.811 297.065 109.322C296.646 108.833 295.947 108.554 295.109 108.554C294.131 108.484 293.502 108.763 293.083 109.322Z" fill="#282828"/>
<path d="M142.682 124.271L133.182 89.833H141.495L144.848 105.41C145.686 109.252 146.315 112.535 146.734 115.26H146.943C147.223 113.304 147.852 110.09 148.83 105.48L152.322 89.833H160.635L150.995 124.271V140.756H142.752V124.271H142.682Z" fill="#282828"/>
<path d="M208.697 103.594V140.826H202.13L201.431 136.286H201.222C199.475 139.708 196.751 141.455 193.188 141.455C190.743 141.455 188.927 140.617 187.74 139.01C186.552 137.403 185.993 134.889 185.993 131.396V103.594H194.376V130.907C194.376 132.583 194.586 133.771 194.935 134.469C195.284 135.168 195.913 135.517 196.751 135.517C197.45 135.517 198.148 135.308 198.847 134.819C199.545 134.4 200.034 133.841 200.314 133.142V103.594H208.697Z" fill="#282828"/>
<path d="M251.658 103.594V140.826H245.092L244.393 136.286H244.184C242.437 139.708 239.713 141.455 236.15 141.455C233.705 141.455 231.889 140.617 230.701 139.01C229.514 137.403 228.955 134.889 228.955 131.396V103.594H237.338V130.907C237.338 132.583 237.547 133.771 237.897 134.469C238.246 135.168 238.875 135.517 239.713 135.517C240.412 135.517 241.11 135.308 241.809 134.819C242.507 134.4 242.996 133.841 243.276 133.142V103.594H251.658Z" fill="#282828"/>
<path d="M231.47 96.6088H223.157V140.756H214.984V96.6088H206.671V89.833H231.47V96.6088Z" fill="#282828"/>
<path d="M279.391 109.532C278.902 107.157 278.064 105.48 276.946 104.432C275.829 103.385 274.222 102.826 272.266 102.826C270.729 102.826 269.262 103.245 267.935 104.153C266.608 104.991 265.56 106.179 264.861 107.576H264.791V87.947H256.688V140.756H263.604L264.442 137.264H264.652C265.28 138.521 266.258 139.499 267.586 140.267C268.913 140.966 270.31 141.385 271.917 141.385C274.781 141.385 276.807 140.058 278.134 137.473C279.461 134.889 280.16 130.767 280.16 125.249V119.381C280.09 115.12 279.88 111.837 279.391 109.532ZM271.707 124.69C271.707 127.414 271.567 129.51 271.358 131.047C271.148 132.583 270.729 133.701 270.24 134.33C269.681 134.958 268.983 135.308 268.144 135.308C267.446 135.308 266.817 135.168 266.258 134.819C265.7 134.469 265.211 133.98 264.861 133.352V112.256C265.141 111.278 265.63 110.44 266.328 109.741C267.027 109.113 267.795 108.763 268.564 108.763C269.402 108.763 270.1 109.113 270.52 109.741C271.009 110.44 271.288 111.557 271.498 113.094C271.707 114.701 271.777 116.936 271.777 119.8V124.69H271.707Z" fill="#282828"/>
</svg>
